<svg xmlns="http://www.w3.org/2000/svg" xmlns:xlink="http://www.w3.org/1999/xlink" x="0px" y="0px" viewBox="0 0 512 512" style="enable-background:new 0 0 512 512;" xml:space="preserve"><g ifill="#f54846" d="zRddiv.tif"><g><path fill="#f54846" d="M0,216c0-3.3,0-6.7,0-10c0.3-0.7,0.8-1.4,1-2.2c2.4-13.2,5.3-26.4,7-39.7c1.5-12.2,6.2-22.1,14.4-31.3c16.5-18.5,32-37.8,47.7-57c1.7-2.1,2.8-5.3,2.8-8c0.2-19,0.2-37.9,0.1-56.9c0-5,1.5-8.7,6.1-11c118,0,236,0,354,0c4.6,2.3,6.1,6,6.1,11c-0.2,18.8,0,37.7-0.1,56.5c0,3.6,1,6.3,3.3,9c18.3,21.8,36.6,43.7,54.7,65.7c2.2,2.7,3.9,6.2,4.6,9.6c1.8,8.1,2.9,16.4,4.5,24.6c1.9,9.9,3.9,19.8,5.9,29.7c0,3.3,0,6.7,0,10c-0.3,1.3-0.7,2.5-1,3.8c-3.9,18.7-14.4,32.4-31.9,40.2c-4.4,1.9-5.6,4.2-5.6,8.8c0.1,77,0.1,153.9,0.2,230.9c0,5.1-0.9,9.6-5.7,12.3c-116.7,0-233.3,0-350,0c-3.8-2.7-6.5-6-4.7-10.9c1.8-5,6.2-5.4,10.8-5.2c1,0,2,0,3,0c54.7,0,109.3,0,164,0c1.9,0,3.9,0,6.3,0c0-2.5,0-4.3,0-6.1c0-58.5,0-117,0-175.5c0-9.3,2.5-11.9,11.8-11.9c35.3,0,70.7,0,106,0c11.3,0,13.1,1.8,13.1,13.1c0,58,0,116,0,174c0,2.1,0,4.1,0,6.1c10.2,0,19.4,0,28.7,0c0-77,0-153.5,0-230.5c-22.3,0.9-39.7-7.7-52.3-26.2c-12.2,17.8-28.6,26.2-49.8,26.2c-21.1,0-37.3-8.8-49.3-26.1c-22.1,34.9-77.3,35-99.3,0c-11.9,17.5-28.3,26.1-49.5,26.1c-21.1,0-37.5-8.6-49.6-26.2c-12.7,18.6-30.1,27.1-52.2,26.2c0,77.1,0,153.8,0,230.8c12.6,0,24.8,0.1,36.9,0c4.9,0,9.2,0.7,10.6,6.2c1.3,5-1.7,7.8-5.6,10c-17.7,0-35.3,0-53,0c-4.4-2.5-5.8-6.4-5.7-11.3c0.1-11.5,0-23,0-34.5c0-66.3,0-132.6,0.1-198.9c0-3.8-1.6-5.1-4.6-6.9c-7-4.3-14-8.9-20-14.5C5.4,238,2.3,227,0,216z M314,495.6c33,0,65.4,0,97.8,0c0-44.7,0-89.1,0-133.4c-32.8,0-65.2,0-97.8,0C314,406.8,314,451,314,495.6z M89.4,65.4c111.5,0,222.4,0,333.2,0c0-16.6,0-32.7,0-48.9c-111.3,0-222.3,0-333.2,0C89.4,33,89.4,49.1,89.4,65.4z M406.5,158.2c2.4,20.1,4.4,39.6,7.4,59c0.9,5.6,3.7,11.5,7.2,16.1c11,14.8,26.8,17.7,43.8,14.5c19.9-3.7,34.4-24.2,29.8-43.7c-1.2-5-1.8-10.1-2.8-15.2c-1.9-10.3-3.7-20.5-5.6-30.7C459.5,158.2,433.3,158.2,406.5,158.2z M105.6,158c-26.3,0-51.8,0-77.3,0.2c-1.1,0-3,2.2-3.3,3.6c-2.1,10.6-4.1,21.3-5.9,31.9c-1.1,6.4-3.1,12.9-2.5,19.2c2,21,16.3,34.5,37.4,35.9c17.8,1.2,32.4-4.9,40.5-21.4c3-6,3.8-13.3,4.7-20.2C101.6,191,103.5,174.8,105.6,158z M121.9,158.2c-1.4,10.9-2.7,21.3-4,31.7c-0.9,7.4-2.6,14.9-2.1,22.3c1.4,20.6,14.9,33.9,35.7,36.5c25.3,3.1,44.9-12.8,46.7-38.2c1.1-15.6,1.8-31.3,2.7-46.9c0.1-1.7,0-3.5,0-5.3C174.3,158.2,148.4,158.2,121.9,158.2z M311.1,158.2c0,2.4-0.1,4.4,0,6.4c0.9,15.3,1.7,30.6,2.7,45.9c1.4,22.1,15.2,36.2,37.2,38.3c21.3,2,39.1-9.3,44-29.3c1.6-6.7,0.6-14.2-0.1-21.2c-1.3-13.4-3.2-26.7-4.9-40.1C363.6,158.2,337.6,158.2,311.1,158.2z M295,158.3c-26.5,0-51.9,0-77.6,0c-0.1,1.4-0.3,2.5-0.3,3.6c-0.8,14.8-1.5,29.6-2.2,44.4c-1.2,23.5,14,40.6,37.4,42.5c18.2,1.4,33.3-6.3,40.9-21.7c2-4.1,3.7-8.8,3.7-13.3C296.6,195.4,295.7,177,295,158.3z M228.2,82.2c-3,20-6,39.6-9,59.5c24.7,0,49.1,0,73.8,0c-3-20-6-39.7-9-59.5C265.1,82.2,246.9,82.2,228.2,82.2z M384.1,141.7c-7.3-15-14.3-29.3-21.4-43.6c-2.6-5.2-4-12.4-8.2-15c-4.4-2.7-11.5-1-17.5-1c-12.1-0.1-24.3,0-36.8,0c3.1,20.1,6.1,39.8,9.1,59.7C334.2,141.7,358.8,141.7,384.1,141.7z M211.8,82c-17.2,0-33.8,0.1-50.5-0.1c-3.2,0-4.7,1-6,3.8c-8.4,17.4-17,34.6-25.5,52c-0.6,1.2-1.1,2.6-1.6,3.9c25.1,0,49.7,0,74.4,0C205.7,121.8,208.7,102.2,211.8,82z M373.6,82c0,0.7-0.2,1.1,0,1.3c9.2,18.8,18.4,37.6,27.7,56.3c0.6,1.2,2.8,2.2,4.3,2.2c22.6,0.1,45.3,0.1,67.9,0c0.4,0,0.8-0.3,1.4-0.5c-0.2-0.6-0.3-1.1-0.6-1.4c-15.6-18.6-31.1-37.3-46.7-55.9c-0.8-1-2.4-2-3.6-2C407.1,82,390.3,82,373.6,82z M139.2,82c-16.8,0-32.7,0.1-48.7-0.1c-3.2,0-5.2,0.9-7.2,3.3c-14.7,17.9-29.6,35.6-44.4,53.4c-0.7,0.8-1.2,1.8-2.1,3.2c24,0,47.3,0,70.6-0.1c1.1,0,2.8-1.1,3.4-2.1C120.1,120.8,129.4,101.8,139.2,82z M314,345.2c33,0,65.4,0,97.9,0c0-8.9,0-17.5,0-26.2c-32.8,0-65.3,0-97.9,0C314,327.9,314,336.4,314,345.2z"/><path fill="#f54846" d="M178.2,420.8c-26.5,0-53,0-79.4,0c-9.4,0-11.9-2.4-11.9-11.7c0-31.8,0-63.6,0-95.4c0-8.8,2.5-11.3,11.3-11.3c53.6,0,107.2,0,160.9,0c8.7,0,11.2,2.6,11.2,11.4c0,32,0,63.9,0,95.9c0,8.4-2.6,11-11,11.1C232.1,420.8,205.2,420.8,178.2,420.8C178.2,420.8,178.2,420.8,178.2,420.8z M103.1,404.2c50.5,0,100.6,0,150.6,0c0-28.6,0-56.9,0-85.1c-50.3,0-100.4,0-150.6,0C103.1,347.5,103.1,375.6,103.1,404.2z"/><path fill="#f54846" d="M257.1,32.9c45.5,0,91,0,136.5,0c1.8,0,3.7-0.1,5.5,0.2c4.3,0.7,6.9,3.2,7.1,7.7c0.2,4.3-2.7,7.5-7.2,8.2c-1.5,0.2-3,0.1-4.5,0.1c-91.6,0-183.3,0-274.9,0c-1.7,0-3.4,0.1-5-0.2c-4.3-0.9-6.7-3.6-6.6-8.1c0.1-4.2,2.6-6.8,6.7-7.6c1.8-0.3,3.7-0.2,5.5-0.2C165.8,32.9,211.4,32.9,257.1,32.9z"/></g></g></svg>